<svg xmlns="http://www.w3.org/2000/svg" xmlns:xlink="http://www.w3.org/1999/xlink" width="500" zoomAndPan="magnify" viewBox="0 0 375 374.999991" height="500" preserveAspectRatio="xMidYMid meet" version="1.0"><defs><g/><clipPath id="9eefb8ff67"><path d="M 54.378906 153.796875 L 112.171875 153.796875 L 112.171875 211.59375 L 54.378906 211.59375 Z M 54.378906 153.796875 " clip-rule="nonzero"/></clipPath></defs><rect x="-37.5" width="450" fill="#ffffff" y="-37.499999" height="449.999989" fill-opacity="1"/><rect x="-37.5" width="450" fill="#ffffff" y="-37.499999" height="449.999989" fill-opacity="1"/><rect x="-37.5" width="450" fill="#000000" y="-37.499999" height="449.999989" fill-opacity="1"/><g clip-path="url(#9eefb8ff67)"><path fill="#ffffff" d="M 81.371094 153.796875 C 66.480469 153.796875 54.378906 165.902344 54.378906 180.792969 C 54.378906 195.6875 66.480469 207.789062 81.371094 207.789062 C 83.898438 207.789062 86.367188 207.425781 88.734375 206.753906 L 88.734375 202.015625 C 86.898438 203.789062 84.820312 204.925781 82.597656 205.238281 L 82.597656 195.519531 L 88.734375 195.519531 L 88.734375 193.0625 L 82.597656 193.0625 L 82.597656 182.019531 L 88.734375 182.019531 L 88.734375 179.566406 L 82.597656 179.566406 L 82.597656 168.523438 L 94.097656 168.523438 C 95.195312 171.691406 95.890625 175.296875 96.042969 179.148438 L 97.324219 180.351562 L 98.535156 181.484375 L 99.105469 182.019531 L 105.871094 182.019531 C 105.773438 183.894531 105.476562 185.734375 104.96875 187.519531 L 106.953125 189.378906 C 107.878906 186.632812 108.367188 183.746094 108.367188 180.792969 C 108.367188 165.902344 96.265625 153.796875 81.371094 153.796875 Z M 80.144531 156.351562 L 80.144531 166.070312 L 69.644531 166.070312 C 70.101562 165.058594 70.59375 164.09375 71.132812 163.222656 C 73.582031 159.265625 76.742188 156.832031 80.144531 156.351562 Z M 82.597656 156.351562 C 86.898438 156.949219 90.671875 160.628906 93.125 166.070312 L 82.597656 166.070312 Z M 90.574219 158.035156 C 94.746094 159.722656 98.332031 162.527344 100.992188 166.070312 L 95.75 166.070312 C 94.410156 162.84375 92.640625 160.105469 90.574219 158.035156 Z M 72.078125 158.082031 C 70.972656 159.199219 69.945312 160.480469 69.050781 161.925781 C 68.261719 163.199219 67.5625 164.585938 66.953125 166.070312 L 61.761719 166.070312 C 64.40625 162.554688 67.953125 159.769531 72.078125 158.082031 Z M 60.132812 168.523438 L 66.058594 168.523438 C 64.980469 171.867188 64.34375 175.605469 64.230469 179.566406 L 56.859375 179.566406 C 57.0625 175.550781 58.234375 171.800781 60.132812 168.523438 Z M 68.65625 168.523438 L 80.144531 168.523438 L 80.144531 179.566406 L 66.6875 179.566406 C 66.804688 175.550781 67.503906 171.792969 68.65625 168.523438 Z M 96.652344 168.523438 L 102.628906 168.523438 C 104.523438 171.800781 105.683594 175.554688 105.878906 179.566406 L 98.511719 179.566406 C 98.398438 175.601562 97.746094 171.863281 96.652344 168.523438 Z M 56.859375 182.019531 L 64.230469 182.019531 C 64.34375 185.980469 64.980469 189.71875 66.058594 193.0625 L 60.132812 193.0625 C 58.234375 189.785156 57.0625 186.035156 56.859375 182.019531 Z M 66.6875 182.019531 L 80.144531 182.019531 L 80.144531 193.0625 L 68.65625 193.0625 C 67.503906 189.792969 66.804688 186.035156 66.6875 182.019531 Z M 93.585938 182.019531 C 92.933594 182.054688 92.414062 182.589844 92.414062 183.246094 L 92.414062 206.867188 C 92.414062 207.367188 92.710938 207.8125 93.171875 208 C 93.632812 208.191406 94.160156 208.085938 94.511719 207.734375 L 98.207031 204.035156 L 101.289062 210.753906 C 101.570312 211.367188 102.300781 211.636719 102.917969 211.355469 L 107.652344 209.1875 C 108.265625 208.90625 108.535156 208.175781 108.253906 207.558594 L 105.054688 200.578125 L 110.820312 200.578125 C 111.324219 200.578125 111.78125 200.273438 111.960938 199.804688 C 112.148438 199.332031 112.027344 198.800781 111.660156 198.457031 L 94.480469 182.351562 C 94.238281 182.125 93.914062 182.007812 93.585938 182.019531 Z M 94.871094 186.082031 L 107.714844 198.125 L 103.304688 198.125 C 103.113281 198.125 102.925781 198.167969 102.753906 198.253906 L 102.625 198.320312 C 102.035156 198.617188 101.78125 199.328125 102.058594 199.925781 L 105.511719 207.460938 L 103.003906 208.613281 L 99.699219 201.410156 C 99.539062 201.042969 99.199219 200.785156 98.804688 200.714844 C 98.40625 200.640625 98.003906 200.769531 97.722656 201.058594 L 94.871094 203.90625 Z M 61.761719 195.519531 L 66.953125 195.519531 C 67.5625 197 68.261719 198.390625 69.050781 199.660156 C 69.945312 201.105469 70.972656 202.386719 72.078125 203.503906 C 67.953125 201.816406 64.40625 199.03125 61.761719 195.519531 Z M 69.644531 195.519531 L 80.144531 195.519531 L 80.144531 205.234375 C 76.742188 204.753906 73.582031 202.320312 71.132812 198.371094 C 70.59375 197.492188 70.101562 196.527344 69.644531 195.519531 Z M 69.644531 195.519531 " fill-opacity="1" fill-rule="nonzero"/></g><g fill="#ffffff" fill-opacity="1"><g transform="translate(115.549248, 207.727868)"><g><path d="M 36.1875 0 L 48.164062 0 L 29.816406 -50.96875 L 17.246094 -50.96875 L -1.105469 0 L 10.875 0 L 14.015625 -9.597656 L 33.042969 -9.597656 Z M 16.988281 -18.941406 L 23.53125 -39.160156 L 30.070312 -18.941406 Z M 16.988281 -18.941406 "/></g></g></g><g fill="#ffffff" fill-opacity="1"><g transform="translate(162.602312, 207.727868)"><g><path d="M 25.910156 0.679688 C 37.972656 0.679688 47.144531 -6.710938 47.144531 -16.308594 L 47.144531 -50.96875 L 35.933594 -50.96875 L 35.933594 -18.433594 C 35.933594 -13.25 31.601562 -9.257812 25.910156 -9.257812 C 20.300781 -9.257812 15.96875 -13.25 15.96875 -18.433594 L 15.96875 -50.96875 L 4.757812 -50.96875 L 4.757812 -16.308594 C 4.757812 -6.710938 14.015625 0.679688 25.910156 0.679688 Z M 25.910156 0.679688 "/></g></g></g><g fill="#ffffff" fill-opacity="1"><g transform="translate(214.49658, 207.727868)"><g><path d="M 35.675781 -25.824219 C 39.5 -27.863281 41.964844 -31.429688 41.964844 -36.78125 C 41.964844 -45.785156 35.167969 -50.96875 26.589844 -50.96875 L 5.011719 -50.96875 L 5.011719 0 L 28.542969 0 C 37.035156 0 43.664062 -4.925781 43.664062 -13.929688 C 43.664062 -20.132812 40.433594 -23.953125 35.675781 -25.824219 Z M 30.75 -35.59375 C 30.75 -32.621094 28.289062 -30.070312 25.230469 -30.070312 L 16.226562 -30.070312 L 16.226562 -41.03125 L 25.230469 -41.03125 C 28.289062 -41.03125 30.75 -38.652344 30.75 -35.59375 Z M 26.929688 -9.9375 L 16.226562 -9.9375 L 16.226562 -20.898438 L 26.929688 -20.898438 C 30.070312 -20.898438 32.449219 -18.347656 32.449219 -15.375 C 32.449219 -12.316406 30.070312 -9.9375 26.929688 -9.9375 Z M 26.929688 -9.9375 "/></g></g></g><g fill="#ffffff" fill-opacity="1"><g transform="translate(260.615382, 207.727868)"><g><path d="M 20.726562 0.679688 C 30.242188 0.679688 38.3125 -4.925781 38.3125 -14.441406 C 38.3125 -33.300781 14.867188 -28.628906 14.867188 -37.460938 C 14.867188 -40.351562 17.074219 -41.707031 19.792969 -41.707031 C 22.679688 -41.707031 25.570312 -40.09375 28.117188 -37.292969 L 35.59375 -44.425781 C 31.855469 -48.757812 26.164062 -51.648438 19.878906 -51.648438 C 11.808594 -51.648438 3.566406 -46.804688 3.566406 -36.613281 C 3.566406 -19.28125 27.097656 -23.445312 27.097656 -14.527344 C 27.097656 -11.722656 24.71875 -9.855469 20.8125 -9.855469 C 16.140625 -9.855469 12.488281 -12.488281 10.617188 -16.480469 L 1.359375 -10.703125 C 4.671875 -4.332031 11.808594 0.679688 20.726562 0.679688 Z M 20.726562 0.679688 "/></g></g></g><g fill="#ffffff" fill-opacity="1"><g transform="translate(52.724442, 225.414395)"><g><path d="M 3.640625 -1.6875 L 1.390625 -1.6875 L 0.78125 0 L 0.0625 0 L 2.375 -6.203125 L 2.71875 -6.203125 L 5.03125 0 L 4.265625 0 Z M 1.625 -2.3125 L 3.421875 -2.3125 L 2.75 -4.171875 L 2.53125 -5.09375 L 2.515625 -5.09375 L 2.296875 -4.15625 Z M 1.625 -2.3125 "/></g></g></g><g fill="#ffffff" fill-opacity="1"><g transform="translate(60.533701, 225.414395)"><g><path d="M 4.25 -6.109375 L 4.9375 -6.109375 L 4.9375 -2.03125 C 4.9375 -1.664062 4.890625 -1.347656 4.796875 -1.078125 C 4.703125 -0.816406 4.566406 -0.597656 4.390625 -0.421875 C 4.210938 -0.253906 4 -0.128906 3.75 -0.046875 C 3.5 0.0351562 3.222656 0.078125 2.921875 0.078125 C 2.203125 0.078125 1.65625 -0.0820312 1.28125 -0.40625 C 0.914062 -0.726562 0.734375 -1.222656 0.734375 -1.890625 L 0.734375 -6.109375 L 1.46875 -6.109375 L 1.46875 -2.234375 C 1.46875 -1.921875 1.492188 -1.660156 1.546875 -1.453125 C 1.609375 -1.242188 1.703125 -1.070312 1.828125 -0.9375 C 1.953125 -0.800781 2.101562 -0.703125 2.28125 -0.640625 C 2.46875 -0.585938 2.679688 -0.5625 2.921875 -0.5625 C 3.398438 -0.5625 3.738281 -0.691406 3.9375 -0.953125 C 4.144531 -1.210938 4.25 -1.640625 4.25 -2.234375 Z M 4.25 -6.109375 "/></g></g></g><g fill="#ffffff" fill-opacity="1"><g transform="translate(68.927562, 225.414395)"><g><path d="M 4.6875 -5.453125 L 2.78125 -5.453125 L 2.78125 0 L 2.0625 0 L 2.0625 -5.453125 L 0.15625 -5.453125 L 0.15625 -6.109375 L 4.6875 -6.109375 Z M 4.6875 -5.453125 "/></g></g></g><g fill="#ffffff" fill-opacity="1"><g transform="translate(76.475059, 225.414395)"><g><path d="M 0.484375 -3.046875 C 0.484375 -4.066406 0.695312 -4.847656 1.125 -5.390625 C 1.5625 -5.929688 2.175781 -6.203125 2.96875 -6.203125 C 3.40625 -6.203125 3.78125 -6.125 4.09375 -5.96875 C 4.40625 -5.820312 4.660156 -5.609375 4.859375 -5.328125 C 5.066406 -5.054688 5.21875 -4.726562 5.3125 -4.34375 C 5.414062 -3.957031 5.46875 -3.523438 5.46875 -3.046875 C 5.46875 -2.035156 5.25 -1.253906 4.8125 -0.703125 C 4.382812 -0.160156 3.769531 0.109375 2.96875 0.109375 C 2.550781 0.109375 2.1875 0.0351562 1.875 -0.109375 C 1.5625 -0.265625 1.300781 -0.476562 1.09375 -0.75 C 0.882812 -1.03125 0.726562 -1.363281 0.625 -1.75 C 0.53125 -2.144531 0.484375 -2.578125 0.484375 -3.046875 Z M 1.25 -3.046875 C 1.25 -2.710938 1.28125 -2.394531 1.34375 -2.09375 C 1.414062 -1.789062 1.519531 -1.523438 1.65625 -1.296875 C 1.800781 -1.066406 1.984375 -0.882812 2.203125 -0.75 C 2.421875 -0.613281 2.675781 -0.546875 2.96875 -0.546875 C 3.507812 -0.546875 3.929688 -0.75 4.234375 -1.15625 C 4.546875 -1.5625 4.703125 -2.191406 4.703125 -3.046875 C 4.703125 -3.378906 4.664062 -3.695312 4.59375 -4 C 4.53125 -4.3125 4.425781 -4.582031 4.28125 -4.8125 C 4.144531 -5.039062 3.96875 -5.222656 3.75 -5.359375 C 3.53125 -5.492188 3.269531 -5.5625 2.96875 -5.5625 C 2.4375 -5.5625 2.015625 -5.351562 1.703125 -4.9375 C 1.398438 -4.53125 1.25 -3.898438 1.25 -3.046875 Z M 1.25 -3.046875 "/></g></g></g><g fill="#ffffff" fill-opacity="1"><g transform="translate(85.148135, 225.414395)"><g><path d="M 5.4375 -4.09375 L 5.515625 -5.015625 L 5.46875 -5.015625 L 5.140625 -4.171875 L 3.5625 -1.421875 L 3.34375 -1.421875 L 1.65625 -4.1875 L 1.34375 -5.015625 L 1.296875 -5.015625 L 1.421875 -4.109375 L 1.421875 0 L 0.734375 0 L 0.734375 -6.109375 L 1.28125 -6.109375 L 3.1875 -2.984375 L 3.484375 -2.296875 L 3.5 -2.296875 L 3.765625 -3 L 5.59375 -6.109375 L 6.15625 -6.109375 L 6.15625 0 L 5.4375 0 Z M 5.4375 -4.09375 "/></g></g></g><g fill="#ffffff" fill-opacity="1"><g transform="translate(94.754836, 225.414395)"><g><path d="M 3.640625 -1.6875 L 1.390625 -1.6875 L 0.78125 0 L 0.0625 0 L 2.375 -6.203125 L 2.71875 -6.203125 L 5.03125 0 L 4.265625 0 Z M 1.625 -2.3125 L 3.421875 -2.3125 L 2.75 -4.171875 L 2.53125 -5.09375 L 2.515625 -5.09375 L 2.296875 -4.15625 Z M 1.625 -2.3125 "/></g></g></g><g fill="#ffffff" fill-opacity="1"><g transform="translate(102.564093, 225.414395)"><g><path d="M 4.6875 -5.453125 L 2.78125 -5.453125 L 2.78125 0 L 2.0625 0 L 2.0625 -5.453125 L 0.15625 -5.453125 L 0.15625 -6.109375 L 4.6875 -6.109375 Z M 4.6875 -5.453125 "/></g></g></g><g fill="#ffffff" fill-opacity="1"><g transform="translate(110.111591, 225.414395)"><g><path d="M 0.90625 -6.109375 L 1.625 -6.109375 L 1.625 0 L 0.90625 0 Z M 0.90625 -6.109375 "/></g></g></g><g fill="#ffffff" fill-opacity="1"><g transform="translate(115.355565, 225.414395)"><g><path d="M 4.640625 -0.25 C 4.472656 -0.113281 4.253906 -0.0195312 3.984375 0.03125 C 3.710938 0.0820312 3.425781 0.109375 3.125 0.109375 C 2.757812 0.109375 2.414062 0.046875 2.09375 -0.078125 C 1.78125 -0.203125 1.503906 -0.390625 1.265625 -0.640625 C 1.023438 -0.898438 0.832031 -1.226562 0.6875 -1.625 C 0.550781 -2.03125 0.484375 -2.503906 0.484375 -3.046875 C 0.484375 -3.617188 0.5625 -4.101562 0.71875 -4.5 C 0.875 -4.894531 1.078125 -5.21875 1.328125 -5.46875 C 1.578125 -5.726562 1.859375 -5.914062 2.171875 -6.03125 C 2.492188 -6.144531 2.816406 -6.203125 3.140625 -6.203125 C 3.484375 -6.203125 3.765625 -6.179688 3.984375 -6.140625 C 4.210938 -6.109375 4.40625 -6.0625 4.5625 -6 L 4.390625 -5.359375 C 4.109375 -5.492188 3.707031 -5.5625 3.1875 -5.5625 C 2.945312 -5.5625 2.710938 -5.515625 2.484375 -5.421875 C 2.253906 -5.335938 2.046875 -5.195312 1.859375 -5 C 1.679688 -4.800781 1.535156 -4.539062 1.421875 -4.21875 C 1.304688 -3.90625 1.25 -3.515625 1.25 -3.046875 C 1.25 -2.628906 1.300781 -2.265625 1.40625 -1.953125 C 1.507812 -1.640625 1.65625 -1.378906 1.84375 -1.171875 C 2.03125 -0.960938 2.242188 -0.804688 2.484375 -0.703125 C 2.734375 -0.597656 3.003906 -0.546875 3.296875 -0.546875 C 3.554688 -0.546875 3.78125 -0.570312 3.96875 -0.625 C 4.164062 -0.675781 4.332031 -0.738281 4.46875 -0.8125 Z M 4.640625 -0.25 "/></g></g></g><g fill="#ffffff" fill-opacity="1"><g transform="translate(123.04267, 225.414395)"><g/></g></g><g fill="#ffffff" fill-opacity="1"><g transform="translate(128.077238, 225.414395)"><g><path d="M 4.25 -6.109375 L 4.9375 -6.109375 L 4.9375 -2.03125 C 4.9375 -1.664062 4.890625 -1.347656 4.796875 -1.078125 C 4.703125 -0.816406 4.566406 -0.597656 4.390625 -0.421875 C 4.210938 -0.253906 4 -0.128906 3.75 -0.046875 C 3.5 0.0351562 3.222656 0.078125 2.921875 0.078125 C 2.203125 0.078125 1.65625 -0.0820312 1.28125 -0.40625 C 0.914062 -0.726562 0.734375 -1.222656 0.734375 -1.890625 L 0.734375 -6.109375 L 1.46875 -6.109375 L 1.46875 -2.234375 C 1.46875 -1.921875 1.492188 -1.660156 1.546875 -1.453125 C 1.609375 -1.242188 1.703125 -1.070312 1.828125 -0.9375 C 1.953125 -0.800781 2.101562 -0.703125 2.28125 -0.640625 C 2.46875 -0.585938 2.679688 -0.5625 2.921875 -0.5625 C 3.398438 -0.5625 3.738281 -0.691406 3.9375 -0.953125 C 4.144531 -1.210938 4.25 -1.640625 4.25 -2.234375 Z M 4.25 -6.109375 "/></g></g></g><g fill="#ffffff" fill-opacity="1"><g transform="translate(136.4711, 225.414395)"><g><path d="M 4.6875 -5.453125 L 2.78125 -5.453125 L 2.78125 0 L 2.0625 0 L 2.0625 -5.453125 L 0.15625 -5.453125 L 0.15625 -6.109375 L 4.6875 -6.109375 Z M 4.6875 -5.453125 "/></g></g></g><g fill="#ffffff" fill-opacity="1"><g transform="translate(144.018598, 225.414395)"><g><path d="M 0.90625 -6.109375 L 1.625 -6.109375 L 1.625 0 L 0.90625 0 Z M 0.90625 -6.109375 "/></g></g></g><g fill="#ffffff" fill-opacity="1"><g transform="translate(149.262566, 225.414395)"><g><path d="M 4.34375 0 L 0.734375 0 L 0.734375 -6.109375 L 1.46875 -6.109375 L 1.46875 -0.640625 L 4.34375 -0.640625 Z M 4.34375 0 "/></g></g></g><g fill="#ffffff" fill-opacity="1"><g transform="translate(156.478493, 225.414395)"><g><path d="M 0.90625 -6.109375 L 1.625 -6.109375 L 1.625 0 L 0.90625 0 Z M 0.90625 -6.109375 "/></g></g></g><g fill="#ffffff" fill-opacity="1"><g transform="translate(161.722467, 225.414395)"><g><path d="M 4.6875 -5.453125 L 2.78125 -5.453125 L 2.78125 0 L 2.0625 0 L 2.0625 -5.453125 L 0.15625 -5.453125 L 0.15625 -6.109375 L 4.6875 -6.109375 Z M 4.6875 -5.453125 "/></g></g></g><g fill="#ffffff" fill-opacity="1"><g transform="translate(169.269965, 225.414395)"><g><path d="M 2.078125 -2.421875 L 0.0625 -6.109375 L 0.921875 -6.109375 L 2.34375 -3.4375 L 2.5 -2.90625 L 2.65625 -3.453125 L 4.03125 -6.109375 L 4.796875 -6.109375 L 2.8125 -2.4375 L 2.8125 0 L 2.078125 0 Z M 2.078125 -2.421875 "/></g></g></g><g fill="#ffffff" fill-opacity="1"><g transform="translate(176.843635, 225.414395)"><g/></g></g><g fill="#ffffff" fill-opacity="1"><g transform="translate(181.878204, 225.414395)"><g><path d="M 4.421875 -4.703125 C 4.421875 -4.554688 4.394531 -4.40625 4.34375 -4.25 C 4.300781 -4.101562 4.234375 -3.960938 4.140625 -3.828125 C 4.046875 -3.703125 3.925781 -3.585938 3.78125 -3.484375 C 3.632812 -3.390625 3.460938 -3.316406 3.265625 -3.265625 L 3.265625 -3.234375 C 3.441406 -3.203125 3.609375 -3.148438 3.765625 -3.078125 C 3.929688 -3.015625 4.070312 -2.921875 4.1875 -2.796875 C 4.3125 -2.671875 4.410156 -2.519531 4.484375 -2.34375 C 4.566406 -2.175781 4.609375 -1.972656 4.609375 -1.734375 C 4.609375 -1.421875 4.539062 -1.148438 4.40625 -0.921875 C 4.28125 -0.691406 4.109375 -0.503906 3.890625 -0.359375 C 3.679688 -0.210938 3.4375 -0.101562 3.15625 -0.03125 C 2.882812 0.03125 2.609375 0.0625 2.328125 0.0625 C 2.222656 0.0625 2.101562 0.0625 1.96875 0.0625 C 1.84375 0.0625 1.707031 0.0546875 1.5625 0.046875 C 1.414062 0.046875 1.269531 0.0351562 1.125 0.015625 C 0.976562 0.00390625 0.847656 -0.015625 0.734375 -0.046875 L 0.734375 -6.046875 C 0.953125 -6.085938 1.203125 -6.117188 1.484375 -6.140625 C 1.773438 -6.160156 2.085938 -6.171875 2.421875 -6.171875 C 2.648438 -6.171875 2.878906 -6.148438 3.109375 -6.109375 C 3.347656 -6.078125 3.5625 -6.003906 3.75 -5.890625 C 3.945312 -5.785156 4.109375 -5.632812 4.234375 -5.4375 C 4.359375 -5.25 4.421875 -5.003906 4.421875 -4.703125 Z M 2.390625 -0.5625 C 2.578125 -0.5625 2.757812 -0.582031 2.9375 -0.625 C 3.113281 -0.664062 3.265625 -0.734375 3.390625 -0.828125 C 3.523438 -0.921875 3.632812 -1.035156 3.71875 -1.171875 C 3.800781 -1.316406 3.84375 -1.488281 3.84375 -1.6875 C 3.84375 -1.925781 3.789062 -2.113281 3.6875 -2.25 C 3.59375 -2.394531 3.46875 -2.507812 3.3125 -2.59375 C 3.164062 -2.675781 2.992188 -2.734375 2.796875 -2.765625 C 2.609375 -2.796875 2.414062 -2.8125 2.21875 -2.8125 L 1.46875 -2.8125 L 1.46875 -0.625 C 1.507812 -0.613281 1.566406 -0.601562 1.640625 -0.59375 C 1.710938 -0.582031 1.789062 -0.570312 1.875 -0.5625 C 1.96875 -0.5625 2.0625 -0.5625 2.15625 -0.5625 C 2.25 -0.5625 2.328125 -0.5625 2.390625 -0.5625 Z M 1.921875 -3.421875 C 2.015625 -3.421875 2.128906 -3.421875 2.265625 -3.421875 C 2.410156 -3.429688 2.53125 -3.441406 2.625 -3.453125 C 2.757812 -3.492188 2.890625 -3.546875 3.015625 -3.609375 C 3.140625 -3.679688 3.25 -3.765625 3.34375 -3.859375 C 3.4375 -3.953125 3.507812 -4.054688 3.5625 -4.171875 C 3.625 -4.285156 3.65625 -4.414062 3.65625 -4.5625 C 3.65625 -4.75 3.617188 -4.90625 3.546875 -5.03125 C 3.472656 -5.15625 3.375 -5.253906 3.25 -5.328125 C 3.125 -5.410156 2.984375 -5.46875 2.828125 -5.5 C 2.671875 -5.53125 2.515625 -5.546875 2.359375 -5.546875 C 2.160156 -5.546875 1.984375 -5.539062 1.828125 -5.53125 C 1.671875 -5.519531 1.550781 -5.507812 1.46875 -5.5 L 1.46875 -3.421875 Z M 1.921875 -3.421875 "/></g></g></g><g fill="#ffffff" fill-opacity="1"><g transform="translate(189.678743, 225.414395)"><g><path d="M 0.484375 -3.046875 C 0.484375 -4.066406 0.695312 -4.847656 1.125 -5.390625 C 1.5625 -5.929688 2.175781 -6.203125 2.96875 -6.203125 C 3.40625 -6.203125 3.78125 -6.125 4.09375 -5.96875 C 4.40625 -5.820312 4.660156 -5.609375 4.859375 -5.328125 C 5.066406 -5.054688 5.21875 -4.726562 5.3125 -4.34375 C 5.414062 -3.957031 5.46875 -3.523438 5.46875 -3.046875 C 5.46875 -2.035156 5.25 -1.253906 4.8125 -0.703125 C 4.382812 -0.160156 3.769531 0.109375 2.96875 0.109375 C 2.550781 0.109375 2.1875 0.0351562 1.875 -0.109375 C 1.5625 -0.265625 1.300781 -0.476562 1.09375 -0.75 C 0.882812 -1.03125 0.726562 -1.363281 0.625 -1.75 C 0.53125 -2.144531 0.484375 -2.578125 0.484375 -3.046875 Z M 1.25 -3.046875 C 1.25 -2.710938 1.28125 -2.394531 1.34375 -2.09375 C 1.414062 -1.789062 1.519531 -1.523438 1.65625 -1.296875 C 1.800781 -1.066406 1.984375 -0.882812 2.203125 -0.75 C 2.421875 -0.613281 2.675781 -0.546875 2.96875 -0.546875 C 3.507812 -0.546875 3.929688 -0.75 4.234375 -1.15625 C 4.546875 -1.5625 4.703125 -2.191406 4.703125 -3.046875 C 4.703125 -3.378906 4.664062 -3.695312 4.59375 -4 C 4.53125 -4.3125 4.425781 -4.582031 4.28125 -4.8125 C 4.144531 -5.039062 3.96875 -5.222656 3.75 -5.359375 C 3.53125 -5.492188 3.269531 -5.5625 2.96875 -5.5625 C 2.4375 -5.5625 2.015625 -5.351562 1.703125 -4.9375 C 1.398438 -4.53125 1.25 -3.898438 1.25 -3.046875 Z M 1.25 -3.046875 "/></g></g></g><g fill="#ffffff" fill-opacity="1"><g transform="translate(198.351819, 225.414395)"><g><path d="M 0.734375 -6.046875 C 0.960938 -6.085938 1.21875 -6.117188 1.5 -6.140625 C 1.789062 -6.160156 2.054688 -6.171875 2.296875 -6.171875 C 2.554688 -6.171875 2.804688 -6.140625 3.046875 -6.078125 C 3.296875 -6.023438 3.507812 -5.929688 3.6875 -5.796875 C 3.875 -5.660156 4.019531 -5.484375 4.125 -5.265625 C 4.238281 -5.054688 4.296875 -4.796875 4.296875 -4.484375 C 4.296875 -4.015625 4.164062 -3.628906 3.90625 -3.328125 C 3.644531 -3.035156 3.3125 -2.835938 2.90625 -2.734375 L 3.328125 -2.421875 L 4.84375 0 L 4 0 L 2.3125 -2.640625 L 1.46875 -2.765625 L 1.46875 0 L 0.734375 0 Z M 2.3125 -5.546875 C 2.238281 -5.546875 2.160156 -5.546875 2.078125 -5.546875 C 1.992188 -5.546875 1.910156 -5.539062 1.828125 -5.53125 C 1.753906 -5.53125 1.6875 -5.523438 1.625 -5.515625 C 1.5625 -5.515625 1.507812 -5.507812 1.46875 -5.5 L 1.46875 -3.25 L 2.140625 -3.25 C 2.546875 -3.25 2.878906 -3.347656 3.140625 -3.546875 C 3.398438 -3.742188 3.53125 -4.050781 3.53125 -4.46875 C 3.53125 -4.78125 3.421875 -5.035156 3.203125 -5.234375 C 2.992188 -5.441406 2.695312 -5.546875 2.3125 -5.546875 Z M 2.3125 -5.546875 "/></g></g></g><g fill="#ffffff" fill-opacity="1"><g transform="translate(206.24833, 225.414395)"><g><path d="M 0.734375 -6.046875 C 0.960938 -6.085938 1.21875 -6.117188 1.5 -6.140625 C 1.789062 -6.160156 2.054688 -6.171875 2.296875 -6.171875 C 2.554688 -6.171875 2.804688 -6.140625 3.046875 -6.078125 C 3.296875 -6.023438 3.507812 -5.929688 3.6875 -5.796875 C 3.875 -5.660156 4.019531 -5.484375 4.125 -5.265625 C 4.238281 -5.054688 4.296875 -4.796875 4.296875 -4.484375 C 4.296875 -4.015625 4.164062 -3.628906 3.90625 -3.328125 C 3.644531 -3.035156 3.3125 -2.835938 2.90625 -2.734375 L 3.328125 -2.421875 L 4.84375 0 L 4 0 L 2.3125 -2.640625 L 1.46875 -2.765625 L 1.46875 0 L 0.734375 0 Z M 2.3125 -5.546875 C 2.238281 -5.546875 2.160156 -5.546875 2.078125 -5.546875 C 1.992188 -5.546875 1.910156 -5.539062 1.828125 -5.53125 C 1.753906 -5.53125 1.6875 -5.523438 1.625 -5.515625 C 1.5625 -5.515625 1.507812 -5.507812 1.46875 -5.5 L 1.46875 -3.25 L 2.140625 -3.25 C 2.546875 -3.25 2.878906 -3.347656 3.140625 -3.546875 C 3.398438 -3.742188 3.53125 -4.050781 3.53125 -4.46875 C 3.53125 -4.78125 3.421875 -5.035156 3.203125 -5.234375 C 2.992188 -5.441406 2.695312 -5.546875 2.3125 -5.546875 Z M 2.3125 -5.546875 "/></g></g></g><g fill="#ffffff" fill-opacity="1"><g transform="translate(214.14484, 225.414395)"><g><path d="M 0.484375 -3.046875 C 0.484375 -4.066406 0.695312 -4.847656 1.125 -5.390625 C 1.5625 -5.929688 2.175781 -6.203125 2.96875 -6.203125 C 3.40625 -6.203125 3.78125 -6.125 4.09375 -5.96875 C 4.40625 -5.820312 4.660156 -5.609375 4.859375 -5.328125 C 5.066406 -5.054688 5.21875 -4.726562 5.3125 -4.34375 C 5.414062 -3.957031 5.46875 -3.523438 5.46875 -3.046875 C 5.46875 -2.035156 5.25 -1.253906 4.8125 -0.703125 C 4.382812 -0.160156 3.769531 0.109375 2.96875 0.109375 C 2.550781 0.109375 2.1875 0.0351562 1.875 -0.109375 C 1.5625 -0.265625 1.300781 -0.476562 1.09375 -0.75 C 0.882812 -1.03125 0.726562 -1.363281 0.625 -1.75 C 0.53125 -2.144531 0.484375 -2.578125 0.484375 -3.046875 Z M 1.25 -3.046875 C 1.25 -2.710938 1.28125 -2.394531 1.34375 -2.09375 C 1.414062 -1.789062 1.519531 -1.523438 1.65625 -1.296875 C 1.800781 -1.066406 1.984375 -0.882812 2.203125 -0.75 C 2.421875 -0.613281 2.675781 -0.546875 2.96875 -0.546875 C 3.507812 -0.546875 3.929688 -0.75 4.234375 -1.15625 C 4.546875 -1.5625 4.703125 -2.191406 4.703125 -3.046875 C 4.703125 -3.378906 4.664062 -3.695312 4.59375 -4 C 4.53125 -4.3125 4.425781 -4.582031 4.28125 -4.8125 C 4.144531 -5.039062 3.96875 -5.222656 3.75 -5.359375 C 3.53125 -5.492188 3.269531 -5.5625 2.96875 -5.5625 C 2.4375 -5.5625 2.015625 -5.351562 1.703125 -4.9375 C 1.398438 -4.53125 1.25 -3.898438 1.25 -3.046875 Z M 1.25 -3.046875 "/></g></g></g><g fill="#ffffff" fill-opacity="1"><g transform="translate(222.817916, 225.414395)"><g><path d="M 1.9375 -2.015625 L 2.078125 -1 L 2.234375 -2.03125 L 3.484375 -6.109375 L 3.84375 -6.109375 L 5.09375 -2.015625 L 5.25 -1 L 5.421875 -2.03125 L 6.4375 -6.109375 L 7.15625 -6.109375 L 5.453125 0.09375 L 5.046875 0.09375 L 3.8125 -4 L 3.65625 -4.921875 L 3.609375 -4.921875 L 3.453125 -3.984375 L 2.21875 0.09375 L 1.8125 0.09375 L 0.0625 -6.109375 L 0.84375 -6.109375 Z M 1.9375 -2.015625 "/></g></g></g><g fill="#ffffff" fill-opacity="1"><g transform="translate(232.747457, 225.414395)"><g><path d="M 0.90625 -6.109375 L 1.625 -6.109375 L 1.625 0 L 0.90625 0 Z M 0.90625 -6.109375 "/></g></g></g><g fill="#ffffff" fill-opacity="1"><g transform="translate(237.991431, 225.414395)"><g><path d="M 1.84375 -4 L 1.375 -4.875 L 1.328125 -4.875 L 1.421875 -4 L 1.421875 0 L 0.734375 0 L 0.734375 -6.203125 L 1.125 -6.203125 L 4.046875 -2.125 L 4.5 -1.296875 L 4.546875 -1.296875 L 4.453125 -2.125 L 4.453125 -6.109375 L 5.125 -6.109375 L 5.125 0.09375 L 4.75 0.09375 Z M 1.84375 -4 "/></g></g></g><g fill="#ffffff" fill-opacity="1"><g transform="translate(246.568525, 225.414395)"><g><path d="M 2.796875 -3.046875 L 4.84375 -3.046875 L 4.84375 -0.359375 C 4.75 -0.285156 4.632812 -0.21875 4.5 -0.15625 C 4.375 -0.101562 4.238281 -0.0546875 4.09375 -0.015625 C 3.945312 0.0234375 3.789062 0.0546875 3.625 0.078125 C 3.46875 0.0976562 3.316406 0.109375 3.171875 0.109375 C 2.773438 0.109375 2.414062 0.046875 2.09375 -0.078125 C 1.769531 -0.203125 1.488281 -0.394531 1.25 -0.65625 C 1.007812 -0.914062 0.820312 -1.242188 0.6875 -1.640625 C 0.550781 -2.035156 0.484375 -2.503906 0.484375 -3.046875 C 0.484375 -3.609375 0.5625 -4.085938 0.71875 -4.484375 C 0.882812 -4.890625 1.097656 -5.21875 1.359375 -5.46875 C 1.628906 -5.726562 1.925781 -5.914062 2.25 -6.03125 C 2.570312 -6.144531 2.894531 -6.203125 3.21875 -6.203125 C 3.570312 -6.203125 3.859375 -6.179688 4.078125 -6.140625 C 4.304688 -6.109375 4.503906 -6.0625 4.671875 -6 L 4.484375 -5.359375 C 4.203125 -5.492188 3.800781 -5.5625 3.28125 -5.5625 C 3.039062 -5.5625 2.800781 -5.519531 2.5625 -5.4375 C 2.320312 -5.351562 2.101562 -5.210938 1.90625 -5.015625 C 1.71875 -4.816406 1.5625 -4.554688 1.4375 -4.234375 C 1.3125 -3.910156 1.25 -3.515625 1.25 -3.046875 C 1.25 -2.617188 1.296875 -2.25 1.390625 -1.9375 C 1.492188 -1.625 1.632812 -1.363281 1.8125 -1.15625 C 1.988281 -0.945312 2.203125 -0.789062 2.453125 -0.6875 C 2.703125 -0.59375 2.976562 -0.546875 3.28125 -0.546875 C 3.65625 -0.546875 3.972656 -0.617188 4.234375 -0.765625 L 4.234375 -2.453125 L 2.796875 -2.640625 Z M 2.796875 -3.046875 "/></g></g></g><g fill="#ffffff" fill-opacity="1"><g transform="translate(254.613374, 225.414395)"><g/></g></g><g fill="#ffffff" fill-opacity="1"><g transform="translate(259.647931, 225.414395)"><g><path d="M 3.5 -1.546875 C 3.5 -1.796875 3.425781 -1.992188 3.28125 -2.140625 C 3.132812 -2.296875 2.953125 -2.429688 2.734375 -2.546875 C 2.515625 -2.671875 2.273438 -2.785156 2.015625 -2.890625 C 1.765625 -2.992188 1.53125 -3.117188 1.3125 -3.265625 C 1.09375 -3.421875 0.910156 -3.609375 0.765625 -3.828125 C 0.617188 -4.046875 0.546875 -4.320312 0.546875 -4.65625 C 0.546875 -5.132812 0.710938 -5.507812 1.046875 -5.78125 C 1.378906 -6.0625 1.847656 -6.203125 2.453125 -6.203125 C 2.804688 -6.203125 3.128906 -6.175781 3.421875 -6.125 C 3.710938 -6.070312 3.941406 -6.003906 4.109375 -5.921875 L 3.890625 -5.296875 C 3.753906 -5.359375 3.554688 -5.414062 3.296875 -5.46875 C 3.035156 -5.53125 2.742188 -5.5625 2.421875 -5.5625 C 2.035156 -5.5625 1.742188 -5.472656 1.546875 -5.296875 C 1.359375 -5.128906 1.265625 -4.929688 1.265625 -4.703125 C 1.265625 -4.472656 1.335938 -4.28125 1.484375 -4.125 C 1.628906 -3.976562 1.8125 -3.84375 2.03125 -3.71875 C 2.25 -3.601562 2.484375 -3.488281 2.734375 -3.375 C 2.992188 -3.257812 3.234375 -3.125 3.453125 -2.96875 C 3.671875 -2.8125 3.851562 -2.625 4 -2.40625 C 4.144531 -2.195312 4.21875 -1.929688 4.21875 -1.609375 C 4.21875 -1.347656 4.171875 -1.113281 4.078125 -0.90625 C 3.984375 -0.695312 3.847656 -0.515625 3.671875 -0.359375 C 3.492188 -0.210938 3.273438 -0.0976562 3.015625 -0.015625 C 2.765625 0.0664062 2.472656 0.109375 2.140625 0.109375 C 1.703125 0.109375 1.34375 0.0703125 1.0625 0 C 0.78125 -0.0625 0.5625 -0.132812 0.40625 -0.21875 L 0.640625 -0.875 C 0.773438 -0.800781 0.972656 -0.726562 1.234375 -0.65625 C 1.492188 -0.582031 1.789062 -0.546875 2.125 -0.546875 C 2.3125 -0.546875 2.488281 -0.5625 2.65625 -0.59375 C 2.820312 -0.632812 2.96875 -0.695312 3.09375 -0.78125 C 3.21875 -0.863281 3.316406 -0.96875 3.390625 -1.09375 C 3.460938 -1.226562 3.5 -1.378906 3.5 -1.546875 Z M 3.5 -1.546875 "/></g></g></g><g fill="#ffffff" fill-opacity="1"><g transform="translate(266.986013, 225.414395)"><g><path d="M 2.078125 -2.421875 L 0.0625 -6.109375 L 0.921875 -6.109375 L 2.34375 -3.4375 L 2.5 -2.90625 L 2.65625 -3.453125 L 4.03125 -6.109375 L 4.796875 -6.109375 L 2.8125 -2.4375 L 2.8125 0 L 2.078125 0 Z M 2.078125 -2.421875 "/></g></g></g><g fill="#ffffff" fill-opacity="1"><g transform="translate(274.559684, 225.414395)"><g><path d="M 3.5 -1.546875 C 3.5 -1.796875 3.425781 -1.992188 3.28125 -2.140625 C 3.132812 -2.296875 2.953125 -2.429688 2.734375 -2.546875 C 2.515625 -2.671875 2.273438 -2.785156 2.015625 -2.890625 C 1.765625 -2.992188 1.53125 -3.117188 1.3125 -3.265625 C 1.09375 -3.421875 0.910156 -3.609375 0.765625 -3.828125 C 0.617188 -4.046875 0.546875 -4.320312 0.546875 -4.65625 C 0.546875 -5.132812 0.710938 -5.507812 1.046875 -5.78125 C 1.378906 -6.0625 1.847656 -6.203125 2.453125 -6.203125 C 2.804688 -6.203125 3.128906 -6.175781 3.421875 -6.125 C 3.710938 -6.070312 3.941406 -6.003906 4.109375 -5.921875 L 3.890625 -5.296875 C 3.753906 -5.359375 3.554688 -5.414062 3.296875 -5.46875 C 3.035156 -5.53125 2.742188 -5.5625 2.421875 -5.5625 C 2.035156 -5.5625 1.742188 -5.472656 1.546875 -5.296875 C 1.359375 -5.128906 1.265625 -4.929688 1.265625 -4.703125 C 1.265625 -4.472656 1.335938 -4.28125 1.484375 -4.125 C 1.628906 -3.976562 1.8125 -3.84375 2.03125 -3.71875 C 2.25 -3.601562 2.484375 -3.488281 2.734375 -3.375 C 2.992188 -3.257812 3.234375 -3.125 3.453125 -2.96875 C 3.671875 -2.8125 3.851562 -2.625 4 -2.40625 C 4.144531 -2.195312 4.21875 -1.929688 4.21875 -1.609375 C 4.21875 -1.347656 4.171875 -1.113281 4.078125 -0.90625 C 3.984375 -0.695312 3.847656 -0.515625 3.671875 -0.359375 C 3.492188 -0.210938 3.273438 -0.0976562 3.015625 -0.015625 C 2.765625 0.0664062 2.472656 0.109375 2.140625 0.109375 C 1.703125 0.109375 1.34375 0.0703125 1.0625 0 C 0.78125 -0.0625 0.5625 -0.132812 0.40625 -0.21875 L 0.640625 -0.875 C 0.773438 -0.800781 0.972656 -0.726562 1.234375 -0.65625 C 1.492188 -0.582031 1.789062 -0.546875 2.125 -0.546875 C 2.3125 -0.546875 2.488281 -0.5625 2.65625 -0.59375 C 2.820312 -0.632812 2.96875 -0.695312 3.09375 -0.78125 C 3.21875 -0.863281 3.316406 -0.96875 3.390625 -1.09375 C 3.460938 -1.226562 3.5 -1.378906 3.5 -1.546875 Z M 3.5 -1.546875 "/></g></g></g><g fill="#ffffff" fill-opacity="1"><g transform="translate(281.897765, 225.414395)"><g><path d="M 4.6875 -5.453125 L 2.78125 -5.453125 L 2.78125 0 L 2.0625 0 L 2.0625 -5.453125 L 0.15625 -5.453125 L 0.15625 -6.109375 L 4.6875 -6.109375 Z M 4.6875 -5.453125 "/></g></g></g><g fill="#ffffff" fill-opacity="1"><g transform="translate(289.445252, 225.414395)"><g><path d="M 0.734375 -6.109375 L 4.0625 -6.109375 L 4.0625 -5.453125 L 1.46875 -5.453125 L 1.46875 -3.46875 L 3.84375 -3.46875 L 3.84375 -2.8125 L 1.46875 -2.8125 L 1.46875 -0.640625 L 4.109375 -0.640625 L 4.109375 0 L 0.734375 0 Z M 0.734375 -6.109375 "/></g></g></g><g fill="#ffffff" fill-opacity="1"><g transform="translate(296.826959, 225.414395)"><g><path d="M 5.4375 -4.09375 L 5.515625 -5.015625 L 5.46875 -5.015625 L 5.140625 -4.171875 L 3.5625 -1.421875 L 3.34375 -1.421875 L 1.65625 -4.1875 L 1.34375 -5.015625 L 1.296875 -5.015625 L 1.421875 -4.109375 L 1.421875 0 L 0.734375 0 L 0.734375 -6.109375 L 1.28125 -6.109375 L 3.1875 -2.984375 L 3.484375 -2.296875 L 3.5 -2.296875 L 3.765625 -3 L 5.59375 -6.109375 L 6.15625 -6.109375 L 6.15625 0 L 5.4375 0 Z M 5.4375 -4.09375 "/></g></g></g></svg>